# xmcd
#
# Track frame offsets:
#	150
#	15862
#	33469
#	48917
#	67580
#	85549
#	98720
#	112563
#	130350
#	142839
#	158095
#	173492
#	187235
#	204373
#	218218
#	231677
#	247422
#	263485
#	276537
#
# Disc length: 3875 seconds
#
# Revision: 1
# Processed by: cddbd v1.4PL0 Copyright (c) Steve Scherf et al.
# Submitted via: EasyCDDAExtractor 5.0.6
#
DISCID=fc0f2113
DTITLE=Various Artist - Explosão Sertaneja
DYEAR=2003
DGENRE=country
TTITLE0=Bruno and Marrone - Ligação Urbana
TTITLE1=Rodrigo and Ricardo - Quem Tem Saudade
TTITLE2=Pedro e Thiago - Pra Onde Você For
TTITLE3=Chitãozinho and Chororó - Encontro Casual
TTITLE4=Edson and Hudson - Meu Anjo
TTITLE5=Leonardo - Ei, Psiu
TTITLE6=Rio Negro and Solimões - Grito da Galera
TTITLE7=Rick and Renner - É Você
TTITLE8=Zezé di Camargo and Luciano - Só Amor pra Ela
TTITLE9=Rodrigo e Ricardo - Seu Brinquedo
TTITLE10=Elvis e Ricardo - Pra Sempre Irei te Amar
TTITLE11=César e Paulinho - Nois só que Virá os Zoio
TTITLE12=Rio Negro and Solimões - No Fim Desta Estrada
TTITLE13=Marcos and Fernando - Loucura de Paixão
TTITLE14=Daniel e José Camilo - Encantos da Natureza
TTITLE15=Fred e Pedrito - Tá Faltando Você
TTITLE16=Gino and Geno - Mete o Dedo
TTITLE17=Breno Reis e Marco Viola - Bom de Bico
TTITLE18=Bruno e Marlow - Faz Parte
EXTD=
EXTT0=
EXTT1=
EXTT2=
EXTT3=
EXTT4=
EXTT5=
EXTT6=
EXTT7=
EXTT8=
EXTT9=
EXTT10=
EXTT11=
EXTT12=
EXTT13=
EXTT14=
EXTT15=
EXTT16=
EXTT17=
EXTT18=
PLAYORDER=
